<svg xmlns="http://www.w3.org/2000/svg" viewBox="-44.0 -44.0 96.0 84.5">
  <path d="M8.0,10.0L48.0,10.0L48.0,2.0L8.0,2.0Z" fill="#d9513c"/>
  <path d="M48.0,-10.0L40.0,-10.0L40.0,-16.6L16.6,-40.0L-16.6,-40.0L-40.0,-16.6L-40.0,16.6L-20.1,36.5L8.1,36.5L28.0,16.6L28.0,-11.6L11.6,-28.0L-11.6,-28.0L-28.0,-11.6L-28.0,11.6L-15.1,24.5L3.1,24.5L16.0,11.6L16.0,2.0L8.0,2.0L8.0,8.3L-0.2,16.5L-11.8,16.5L-20.0,8.3L-20.0,-8.3L-8.3,-20.0L8.3,-20.0L20.0,-8.3L20.0,13.3L4.8,28.5L-16.8,28.5L-32.0,13.3L-32.0,-13.3L-13.3,-32.0L13.3,-32.0L32.0,-13.3L32.0,-2.0L48.0,-2.0Z" fill="#e8944a"/>
</svg>
